<?xml version="1.0" standalone="no"?>
<!DOCTYPE svg PUBLIC "-//W3C//DTD SVG 20010904//EN"
 "http://www.w3.org/TR/2001/REC-SVG-20010904/DTD/svg10.dtd">
<svg version="1.0" xmlns="http://www.w3.org/2000/svg"
 width="465.000000pt" height="91.000000pt" viewBox="0 0 465.000000 91.000000"
 preserveAspectRatio="xMidYMid meet">

<g transform="translate(0.000000,91.000000) scale(0.100000,-0.100000)"
fill="#000000" stroke="none">
<path d="M0 455 l0 -455 2325 0 2325 0 0 455 0 455 -2325 0 -2325 0 0 -455z
m2526 371 c170 -76 243 -253 171 -412 -26 -55 -27 -64 -17 -109 6 -27 20 -64
31 -81 12 -20 16 -35 10 -39 -9 -5 -130 21 -140 30 -1 2 10 30 25 62 25 51 29
69 29 148 0 78 -4 97 -27 140 -29 54 -92 119 -149 153 -88 53 -244 65 -335 27
l-39 -16 30 31 c93 98 275 127 411 66z m-101 -121 c121 -59 188 -158 189 -280
1 -125 -74 -235 -198 -291 -74 -33 -187 -43 -256 -22 -40 13 -49 12 -86 -4
-58 -25 -163 -48 -170 -37 -3 5 4 21 15 35 11 14 25 49 31 78 10 48 8 57 -15
107 -34 76 -41 134 -22 200 23 76 68 141 131 184 76 52 125 65 232 62 76 -2
100 -7 149 -32z"/>
<path d="M2162 518 c5 -14 154 -24 196 -13 51 13 5 25 -94 25 -80 0 -105 -3
-102 -12z"/>
<path d="M2080 420 c0 -6 68 -10 185 -10 117 0 185 4 185 10 0 6 -68 10 -185
10 -117 0 -185 -4 -185 -10z"/>
<path d="M2087 334 c-19 -19 21 -24 184 -24 152 0 179 2 179 15 0 13 -26 15
-178 15 -98 0 -182 -3 -185 -6z"/>
</g>
</svg>
